<?xml version="1.0" encoding="UTF-8"?>
<!DOCTYPE svg PUBLIC "-//W3C//DTD SVG 1.1//EN" "http://www.w3.org/Graphics/SVG/1.1/DTD/svg11.dtd">
<svg version="1.1" xmlns="http://www.w3.org/2000/svg" xmlns:xlink="http://www.w3.org/1999/xlink" x="0" y="0" width="1920" height="1280" viewBox="0, 0, 1920, 1280">
  <g id="base">
    <g>
      <path d="M536.312,247.167 L536.614,247.167 C538.275,247.167 539.482,245.808 539.482,244.298 L539.482,243.996 C539.332,239.617 539.482,231.614 540.086,220.138 L540.086,218.326 C540.539,209.266 540.841,202.622 540.841,198.394 C540.841,190.089 540.388,181.029 540.388,171.818 C544.013,171.667 548.392,171.516 553.526,171.667 C555.187,171.667 556.697,170.157 556.697,168.496 C556.697,166.986 555.338,165.476 553.677,165.476 C552.016,165.325 550.505,165.325 549.146,165.325 C545.825,165.325 542.956,165.476 540.388,165.627 L540.388,155.057 C540.388,154.151 540.388,152.641 540.69,150.527 C540.69,135.729 540.69,124.706 540.388,116.854 C542.201,116.854 544.919,116.854 548.995,116.703 C553.224,116.552 556.546,116.552 558.81,116.552 C560.471,116.703 561.982,115.193 561.982,113.532 C561.982,112.022 560.622,110.512 558.961,110.361 C556.546,110.361 553.073,110.361 548.543,110.512 C546.731,110.512 545.07,110.512 543.711,110.512 L537.369,110.512 C535.708,110.512 534.349,111.72 534.198,113.381 L534.198,114.136 C534.349,122.743 534.349,134.823 534.349,150.527 C534.198,152.641 534.198,154.151 534.198,155.057 C534.198,171.818 534.349,185.559 534.651,196.431 C534.802,199.904 534.349,207.152 533.896,217.873 L533.896,219.987 C533.292,231.614 533.141,239.768 533.292,244.298 C533.443,245.808 534.802,247.167 536.312,247.167 z" fill="#A29F9F"/>
      <path d="M536.312,247.167 L536.614,247.167 C538.275,247.167 539.482,245.808 539.482,244.298 L539.482,243.996 C539.332,239.617 539.482,231.614 540.086,220.138 L540.086,218.326 C540.539,209.266 540.841,202.622 540.841,198.394 C540.841,190.089 540.388,181.029 540.388,171.818 C544.013,171.667 548.392,171.516 553.526,171.667 C555.187,171.667 556.697,170.157 556.697,168.496 C556.697,166.986 555.338,165.476 553.677,165.476 C552.016,165.325 550.505,165.325 549.146,165.325 C545.825,165.325 542.956,165.476 540.388,165.627 L540.388,155.057 C540.388,154.151 540.388,152.641 540.69,150.527 C540.69,135.729 540.69,124.706 540.388,116.854 C542.201,116.854 544.919,116.854 548.995,116.703 C553.224,116.552 556.546,116.552 558.81,116.552 C560.471,116.703 561.982,115.193 561.982,113.532 C561.982,112.022 560.622,110.512 558.961,110.361 C556.546,110.361 553.073,110.361 548.543,110.512 C546.731,110.512 545.07,110.512 543.711,110.512 L537.369,110.512 C535.708,110.512 534.349,111.72 534.198,113.381 L534.198,114.136 C534.349,122.743 534.349,134.823 534.349,150.527 C534.198,152.641 534.198,154.151 534.198,155.057 C534.198,171.818 534.349,185.559 534.651,196.431 C534.802,199.904 534.349,207.152 533.896,217.873 L533.896,219.987 C533.292,231.614 533.141,239.768 533.292,244.298 C533.443,245.808 534.802,247.167 536.312,247.167 z" fill-opacity="0" stroke="#A29F9F" stroke-width="4"/>
    </g>
    <g>
      <path d="M588.256,247.922 C593.994,247.922 597.769,241.429 600.487,232.218 C603.658,221.799 605.319,207.303 605.319,193.562 C605.319,184.049 604.564,174.989 602.752,167.892 C600.336,158.077 595.957,151.282 589.161,151.131 C588.708,150.98 588.256,150.829 587.652,150.829 L587.048,150.829 C581.612,152.339 577.233,158.379 574.515,169.251 C572.25,178.16 571.042,189.636 571.042,200.961 C571.042,211.984 572.099,222.856 574.515,231.312 C577.082,240.976 581.461,247.922 588.256,247.922 z M588.105,241.731 C585.236,241.429 582.518,237.352 580.555,229.651 C578.29,221.648 577.082,211.984 577.082,200.508 C577.082,189.032 578.29,179.066 580.555,170.761 C582.518,163.211 585.085,158.681 588.105,157.322 L588.557,157.322 C592.031,157.322 594.598,161.248 596.712,169.402 C598.372,176.046 599.128,184.653 599.128,193.713 C599.128,206.699 597.467,220.591 594.598,230.557 C593.39,234.483 592.031,237.503 590.672,239.617 C589.917,240.976 589.01,241.731 588.256,241.731 z" fill="#A29F9F"/>
      <path d="M588.256,247.922 C593.994,247.922 597.769,241.429 600.487,232.218 C603.658,221.799 605.319,207.303 605.319,193.562 C605.319,184.049 604.564,174.989 602.752,167.892 C600.336,158.077 595.957,151.282 589.161,151.131 C588.708,150.98 588.256,150.829 587.652,150.829 L587.048,150.829 C581.612,152.339 577.233,158.379 574.515,169.251 C572.25,178.16 571.042,189.636 571.042,200.961 C571.042,211.984 572.099,222.856 574.515,231.312 C577.082,240.976 581.461,247.922 588.256,247.922 z M588.105,241.731 C585.236,241.429 582.518,237.352 580.555,229.651 C578.29,221.648 577.082,211.984 577.082,200.508 C577.082,189.032 578.29,179.066 580.555,170.761 C582.518,163.211 585.085,158.681 588.105,157.322 L588.557,157.322 C592.031,157.322 594.598,161.248 596.712,169.402 C598.372,176.046 599.128,184.653 599.128,193.713 C599.128,206.699 597.467,220.591 594.598,230.557 C593.39,234.483 592.031,237.503 590.672,239.617 C589.917,240.976 589.01,241.731 588.256,241.731 z" fill-opacity="0" stroke="#A29F9F" stroke-width="4"/>
    </g>
    <g>
      <path d="M620.117,247.771 L620.419,247.771 C620.72,247.922 621.173,247.922 621.324,247.771 C622.834,247.62 623.74,246.261 623.74,244.751 L623.74,244.147 C623.589,242.486 623.287,240.523 622.985,238.409 C622.985,234.181 622.985,227.839 622.834,219.383 C623.74,199.904 627.062,178.613 633.253,166.533 C636.424,160.342 640.048,157.473 643.823,157.926 C645.484,158.077 646.995,156.718 647.146,155.057 C647.146,153.547 646.089,151.886 644.427,151.584 C640.803,151.433 637.633,152.339 634.612,154.906 C629.479,158.832 625.703,166.533 622.683,177.103 C622.532,168.496 622.23,161.097 622.079,154.906 C622.079,153.094 620.419,151.886 618.909,151.886 C617.247,152.037 615.888,153.547 615.888,155.208 C616.19,164.117 616.492,176.348 616.643,192.354 L616.643,207.907 L616.643,219.232 C616.643,222.252 616.492,225.272 616.492,227.99 C616.492,231.916 616.643,235.389 616.794,238.711 C616.945,240.674 616.945,242.788 616.945,244.902 C617.247,246.412 618.607,247.771 620.117,247.771 z" fill="#A29F9F"/>
      <path d="M620.117,247.771 L620.419,247.771 C620.72,247.922 621.173,247.922 621.324,247.771 C622.834,247.62 623.74,246.261 623.74,244.751 L623.74,244.147 C623.589,242.486 623.287,240.523 622.985,238.409 C622.985,234.181 622.985,227.839 622.834,219.383 C623.74,199.904 627.062,178.613 633.253,166.533 C636.424,160.342 640.048,157.473 643.823,157.926 C645.484,158.077 646.995,156.718 647.146,155.057 C647.146,153.547 646.089,151.886 644.427,151.584 C640.803,151.433 637.633,152.339 634.612,154.906 C629.479,158.832 625.703,166.533 622.683,177.103 C622.532,168.496 622.23,161.097 622.079,154.906 C622.079,153.094 620.419,151.886 618.909,151.886 C617.247,152.037 615.888,153.547 615.888,155.208 C616.19,164.117 616.492,176.348 616.643,192.354 L616.643,207.907 L616.643,219.232 C616.643,222.252 616.492,225.272 616.492,227.99 C616.492,231.916 616.643,235.389 616.794,238.711 C616.945,240.674 616.945,242.788 616.945,244.902 C617.247,246.412 618.607,247.771 620.117,247.771 z" fill-opacity="0" stroke="#A29F9F" stroke-width="4"/>
    </g>
    <g>
      <path d="M683.839,247.167 L684.141,247.167 C685.802,247.167 687.161,245.657 687.161,244.147 C687.161,243.09 687.01,241.731 687.01,240.07 C687.01,238.409 687.161,236.446 687.161,234.181 L687.765,223.611 L687.765,220.138 C688.067,213.192 688.369,207.454 688.52,202.924 C688.52,199.753 688.52,196.733 688.671,193.864 L688.671,193.713 C688.671,188.428 688.52,171.063 690.029,165.627 C691.086,160.946 694.409,158.832 697.278,158.832 C698.637,158.832 699.995,159.436 700.901,160.342 C702.714,162.003 703.922,164.872 704.979,168.798 C706.791,175.895 707.244,184.955 707.244,194.468 C707.244,203.83 706.791,213.645 706.187,222.101 C706.036,223.913 706.036,226.178 705.885,228.896 C705.734,231.463 705.734,233.577 705.432,235.087 C705.281,239.164 705.281,242.184 705.281,243.996 C705.432,245.506 706.64,246.714 708.301,246.714 L708.753,246.714 C710.263,246.714 711.471,245.506 711.471,243.996 L711.471,243.543 C711.471,240.523 711.924,234.483 712.076,229.198 L712.529,222.403 C712.982,213.947 713.586,204.132 713.586,194.619 C713.586,184.653 712.982,174.989 711.018,167.288 C709.659,162.154 707.697,158.379 705.281,155.963 C703.016,153.698 700.146,152.641 697.278,152.641 C692.294,152.641 687.161,155.812 684.896,161.097 C683.99,158.681 682.63,156.869 680.969,155.812 C678.252,154 675.836,153.094 673.57,153.094 C670.4,153.094 667.531,154.906 665.115,158.681 C664.661,159.134 664.359,159.738 663.906,160.493 L663.906,153.094 C663.906,151.584 662.396,150.074 660.887,150.074 C659.226,150.074 657.716,151.584 657.716,153.094 C657.716,162.456 657.716,173.328 657.565,186.163 C657.414,190.542 657.414,196.733 657.112,204.434 C656.961,222.856 656.81,235.993 656.659,243.694 C656.659,245.506 658.169,246.714 659.83,246.714 C661.49,246.714 662.849,245.506 662.849,243.694 L663.453,204.736 C663.453,202.018 663.453,199.753 663.604,198.092 C663.604,197.941 663.604,197.488 663.755,197.337 L663.755,196.884 C663.755,196.733 663.755,195.374 663.906,193.109 C664.208,191.146 664.208,189.787 664.208,189.183 C664.964,180.274 666.172,168.043 670.249,162.003 C671.154,160.644 672.211,159.738 673.268,159.587 C675.534,158.983 678.554,160.644 679.762,165.174 C680.516,167.741 681.12,170.912 681.724,174.838 C682.328,180.425 682.479,186.767 682.479,193.26 C682.479,202.471 682.026,211.833 681.724,219.836 C681.573,220.289 681.271,226.027 681.271,227.386 C681.12,232.822 680.818,239.768 680.969,244.298 C680.969,245.808 682.328,247.167 683.839,247.167 z" fill="#A29F9F"/>
      <path d="M683.839,247.167 L684.141,247.167 C685.802,247.167 687.161,245.657 687.161,244.147 C687.161,243.09 687.01,241.731 687.01,240.07 C687.01,238.409 687.161,236.446 687.161,234.181 L687.765,223.611 L687.765,220.138 C688.067,213.192 688.369,207.454 688.52,202.924 C688.52,199.753 688.52,196.733 688.671,193.864 L688.671,193.713 C688.671,188.428 688.52,171.063 690.029,165.627 C691.086,160.946 694.409,158.832 697.278,158.832 C698.637,158.832 699.995,159.436 700.901,160.342 C702.714,162.003 703.922,164.872 704.979,168.798 C706.791,175.895 707.244,184.955 707.244,194.468 C707.244,203.83 706.791,213.645 706.187,222.101 C706.036,223.913 706.036,226.178 705.885,228.896 C705.734,231.463 705.734,233.577 705.432,235.087 C705.281,239.164 705.281,242.184 705.281,243.996 C705.432,245.506 706.64,246.714 708.301,246.714 L708.753,246.714 C710.263,246.714 711.471,245.506 711.471,243.996 L711.471,243.543 C711.471,240.523 711.924,234.483 712.076,229.198 L712.529,222.403 C712.982,213.947 713.586,204.132 713.586,194.619 C713.586,184.653 712.982,174.989 711.018,167.288 C709.659,162.154 707.697,158.379 705.281,155.963 C703.016,153.698 700.146,152.641 697.278,152.641 C692.294,152.641 687.161,155.812 684.896,161.097 C683.99,158.681 682.63,156.869 680.969,155.812 C678.252,154 675.836,153.094 673.57,153.094 C670.4,153.094 667.531,154.906 665.115,158.681 C664.661,159.134 664.359,159.738 663.906,160.493 L663.906,153.094 C663.906,151.584 662.396,150.074 660.887,150.074 C659.226,150.074 657.716,151.584 657.716,153.094 C657.716,162.456 657.716,173.328 657.565,186.163 C657.414,190.542 657.414,196.733 657.112,204.434 C656.961,222.856 656.81,235.993 656.659,243.694 C656.659,245.506 658.169,246.714 659.83,246.714 C661.49,246.714 662.849,245.506 662.849,243.694 L663.453,204.736 C663.453,202.018 663.453,199.753 663.604,198.092 C663.604,197.941 663.604,197.488 663.755,197.337 L663.755,196.884 C663.755,196.733 663.755,195.374 663.906,193.109 C664.208,191.146 664.208,189.787 664.208,189.183 C664.964,180.274 666.172,168.043 670.249,162.003 C671.154,160.644 672.211,159.738 673.268,159.587 C675.534,158.983 678.554,160.644 679.762,165.174 C680.516,167.741 681.12,170.912 681.724,174.838 C682.328,180.425 682.479,186.767 682.479,193.26 C682.479,202.471 682.026,211.833 681.724,219.836 C681.573,220.289 681.271,226.027 681.271,227.386 C681.12,232.822 680.818,239.768 680.969,244.298 C680.969,245.808 682.328,247.167 683.839,247.167 z" fill-opacity="0" stroke="#A29F9F" stroke-width="4"/>
    </g>
    <g>
      <path d="M759.943,248.979 C760.245,248.979 760.396,248.828 760.698,248.828 C761.755,248.526 762.962,247.62 762.962,246.261 C762.962,246.11 762.962,245.808 762.811,245.506 C760.245,232.52 759.339,217.42 759.339,198.394 C759.339,191.146 759.49,183.294 759.641,174.838 C759.792,163.664 759.943,156.718 759.792,153.849 C759.641,152.188 758.13,151.131 756.771,151.131 C755.865,151.131 755.11,151.433 754.506,152.188 C754.053,152.641 753.751,153.245 753.751,154 L753.751,154.453 C753.902,156.265 754.053,158.228 754.053,160.644 C754.053,167.439 753.298,176.952 752.242,189.032 L750.581,203.679 C750.43,206.548 749.826,211.531 749.221,215.759 C748.466,220.289 747.862,224.517 747.711,227.084 C747.56,228.443 747.56,229.198 747.56,229.349 C747.107,232.671 746.201,235.238 744.691,237.503 C742.88,240.221 740.464,241.731 738.349,241.731 C737.292,241.731 736.235,241.278 735.48,240.523 C733.82,239.013 732.763,236.144 732.461,232.671 C731.857,227.537 731.555,220.893 731.706,212.437 L731.706,196.884 C731.706,194.619 731.555,191.599 731.555,187.975 C731.555,184.351 731.706,179.972 731.706,174.838 C731.857,168.949 731.857,164.57 731.857,160.191 L731.857,154.604 C731.857,153.094 730.346,151.886 728.987,151.886 C727.326,151.886 725.967,153.094 725.967,154.906 C726.118,156.869 726.118,158.681 726.118,160.493 C726.118,164.721 725.967,168.949 725.816,174.687 C725.816,179.821 725.665,184.351 725.665,188.126 C725.665,191.901 725.816,194.921 725.816,197.337 L725.816,212.437 C725.665,220.893 725.967,227.839 726.571,233.426 C727.779,242.335 732.159,247.62 738.349,247.62 C745.748,247.62 752.242,240.07 753.449,229.953 L753.449,229.349 C753.449,228.896 753.449,228.292 753.6,227.386 L753.902,224.668 L754.355,224.668 C754.959,232.973 755.865,240.372 757.224,246.714 C757.375,247.922 758.432,248.979 759.943,248.979 z" fill="#A29F9F"/>
      <path d="M759.943,248.979 C760.245,248.979 760.396,248.828 760.698,248.828 C761.755,248.526 762.962,247.62 762.962,246.261 C762.962,246.11 762.962,245.808 762.811,245.506 C760.245,232.52 759.339,217.42 759.339,198.394 C759.339,191.146 759.49,183.294 759.641,174.838 C759.792,163.664 759.943,156.718 759.792,153.849 C759.641,152.188 758.13,151.131 756.771,151.131 C755.865,151.131 755.11,151.433 754.506,152.188 C754.053,152.641 753.751,153.245 753.751,154 L753.751,154.453 C753.902,156.265 754.053,158.228 754.053,160.644 C754.053,167.439 753.298,176.952 752.242,189.032 L750.581,203.679 C750.43,206.548 749.826,211.531 749.221,215.759 C748.466,220.289 747.862,224.517 747.711,227.084 C747.56,228.443 747.56,229.198 747.56,229.349 C747.107,232.671 746.201,235.238 744.691,237.503 C742.88,240.221 740.464,241.731 738.349,241.731 C737.292,241.731 736.235,241.278 735.48,240.523 C733.82,239.013 732.763,236.144 732.461,232.671 C731.857,227.537 731.555,220.893 731.706,212.437 L731.706,196.884 C731.706,194.619 731.555,191.599 731.555,187.975 C731.555,184.351 731.706,179.972 731.706,174.838 C731.857,168.949 731.857,164.57 731.857,160.191 L731.857,154.604 C731.857,153.094 730.346,151.886 728.987,151.886 C727.326,151.886 725.967,153.094 725.967,154.906 C726.118,156.869 726.118,158.681 726.118,160.493 C726.118,164.721 725.967,168.949 725.816,174.687 C725.816,179.821 725.665,184.351 725.665,188.126 C725.665,191.901 725.816,194.921 725.816,197.337 L725.816,212.437 C725.665,220.893 725.967,227.839 726.571,233.426 C727.779,242.335 732.159,247.62 738.349,247.62 C745.748,247.62 752.242,240.07 753.449,229.953 L753.449,229.349 C753.449,228.896 753.449,228.292 753.6,227.386 L753.902,224.668 L754.355,224.668 C754.959,232.973 755.865,240.372 757.224,246.714 C757.375,247.922 758.432,248.979 759.943,248.979 z" fill-opacity="0" stroke="#A29F9F" stroke-width="4"/>
    </g>
    <g>
      <path d="M786.971,249.432 C794.22,249.432 800.109,244.298 800.109,236.899 C800.109,235.389 799.958,233.879 799.505,232.369 C799.052,231.161 797.844,230.255 796.635,230.255 C796.484,230.255 796.182,230.255 795.88,230.406 C794.522,230.708 793.465,232.067 793.465,233.426 C793.465,233.728 793.465,234.03 793.616,234.332 C793.918,235.238 794.069,236.144 794.069,237.05 C794.069,239.919 792.257,241.731 789.388,242.788 C788.482,242.939 787.727,243.09 786.971,243.09 C784.707,243.09 783.046,242.033 782.895,239.919 C781.687,232.369 780.932,213.796 780.932,184.502 L780.932,176.197 C780.932,170.157 780.932,162.003 781.083,152.188 C781.234,141.165 781.385,132.256 781.385,125.612 C781.385,118.817 781.234,114.287 781.083,112.022 C781.083,110.361 779.573,108.851 777.911,108.851 C776.401,109.002 775.043,110.512 775.043,112.173 C775.194,114.438 775.345,118.968 775.345,125.612 C775.345,132.256 775.194,141.014 775.043,152.037 C774.892,162.003 774.892,170.157 774.892,176.197 L774.892,184.653 C774.892,214.4 775.647,233.124 776.854,240.976 C777.609,246.261 781.838,249.432 786.971,249.432 z" fill="#A29F9F"/>
      <path d="M786.971,249.432 C794.22,249.432 800.109,244.298 800.109,236.899 C800.109,235.389 799.958,233.879 799.505,232.369 C799.052,231.161 797.844,230.255 796.635,230.255 C796.484,230.255 796.182,230.255 795.88,230.406 C794.522,230.708 793.465,232.067 793.465,233.426 C793.465,233.728 793.465,234.03 793.616,234.332 C793.918,235.238 794.069,236.144 794.069,237.05 C794.069,239.919 792.257,241.731 789.388,242.788 C788.482,242.939 787.727,243.09 786.971,243.09 C784.707,243.09 783.046,242.033 782.895,239.919 C781.687,232.369 780.932,213.796 780.932,184.502 L780.932,176.197 C780.932,170.157 780.932,162.003 781.083,152.188 C781.234,141.165 781.385,132.256 781.385,125.612 C781.385,118.817 781.234,114.287 781.083,112.022 C781.083,110.361 779.573,108.851 777.911,108.851 C776.401,109.002 775.043,110.512 775.043,112.173 C775.194,114.438 775.345,118.968 775.345,125.612 C775.345,132.256 775.194,141.014 775.043,152.037 C774.892,162.003 774.892,170.157 774.892,176.197 L774.892,184.653 C774.892,214.4 775.647,233.124 776.854,240.976 C777.609,246.261 781.838,249.432 786.971,249.432 z" fill-opacity="0" stroke="#A29F9F" stroke-width="4"/>
    </g>
    <g>
      <path d="M834.386,248.677 C834.688,248.677 834.99,248.677 835.292,248.526 C836.5,248.073 837.406,246.714 837.406,245.355 C837.406,245.053 837.406,244.751 837.255,244.449 C835.745,239.617 835.292,228.443 835.292,209.87 L835.292,202.018 L835.292,199.149 C835.292,192.807 835.443,187.22 835.443,182.237 C835.443,166.684 834.839,157.926 832.574,154.604 C830.007,151.433 827.44,149.923 824.873,149.923 C820.494,149.923 815.813,153.849 810.226,161.399 C809.924,162.003 809.622,162.758 809.622,163.362 C809.622,164.268 810.075,165.174 810.981,165.778 C811.585,166.08 812.189,166.382 812.793,166.382 C813.699,166.382 814.605,165.929 815.209,165.174 C819.588,159.436 822.457,156.114 824.722,156.114 C825.024,156.114 825.175,156.265 825.326,156.416 C826.685,156.869 827.742,157.926 828.346,162.154 C828.799,164.721 828.95,167.892 829.101,171.818 C829.252,176.197 829.252,182.237 829.252,189.938 C827.138,188.73 825.175,188.126 823.061,188.126 C820.343,188.126 817.625,189.334 815.209,191.599 C808.716,197.79 804.941,211.833 804.941,224.064 C804.941,228.292 805.394,232.218 806.3,235.691 C807.206,239.617 808.867,242.486 810.981,244.298 C812.944,246.261 815.511,247.318 818.229,247.318 C822.306,247.318 826.685,245.053 830.007,240.976 C830.46,243.241 830.762,245.053 831.366,246.563 C831.819,247.771 833.027,248.677 834.386,248.677 z M819.135,240.976 C816.115,241.429 813.85,239.466 812.34,234.181 C811.585,231.312 811.283,227.839 811.283,224.366 C811.283,213.343 814.605,200.961 819.437,196.431 C820.645,195.223 822.004,194.468 823.212,194.468 C825.024,194.468 826.836,195.676 829.101,197.941 L829.101,202.018 L829.101,211.682 C829.101,218.779 829.101,224.215 829.252,228.292 L829.252,230.557 C826.534,235.993 823.665,239.919 819.135,240.976 z" fill="#953CD0"/>
      <path d="M834.386,248.677 C834.688,248.677 834.99,248.677 835.292,248.526 C836.5,248.073 837.406,246.714 837.406,245.355 C837.406,245.053 837.406,244.751 837.255,244.449 C835.745,239.617 835.292,228.443 835.292,209.87 L835.292,202.018 L835.292,199.149 C835.292,192.807 835.443,187.22 835.443,182.237 C835.443,166.684 834.839,157.926 832.574,154.604 C830.007,151.433 827.44,149.923 824.873,149.923 C820.494,149.923 815.813,153.849 810.226,161.399 C809.924,162.003 809.622,162.758 809.622,163.362 C809.622,164.268 810.075,165.174 810.981,165.778 C811.585,166.08 812.189,166.382 812.793,166.382 C813.699,166.382 814.605,165.929 815.209,165.174 C819.588,159.436 822.457,156.114 824.722,156.114 C825.024,156.114 825.175,156.265 825.326,156.416 C826.685,156.869 827.742,157.926 828.346,162.154 C828.799,164.721 828.95,167.892 829.101,171.818 C829.252,176.197 829.252,182.237 829.252,189.938 C827.138,188.73 825.175,188.126 823.061,188.126 C820.343,188.126 817.625,189.334 815.209,191.599 C808.716,197.79 804.941,211.833 804.941,224.064 C804.941,228.292 805.394,232.218 806.3,235.691 C807.206,239.617 808.867,242.486 810.981,244.298 C812.944,246.261 815.511,247.318 818.229,247.318 C822.306,247.318 826.685,245.053 830.007,240.976 C830.46,243.241 830.762,245.053 831.366,246.563 C831.819,247.771 833.027,248.677 834.386,248.677 z M819.135,240.976 C816.115,241.429 813.85,239.466 812.34,234.181 C811.585,231.312 811.283,227.839 811.283,224.366 C811.283,213.343 814.605,200.961 819.437,196.431 C820.645,195.223 822.004,194.468 823.212,194.468 C825.024,194.468 826.836,195.676 829.101,197.941 L829.101,202.018 L829.101,211.682 C829.101,218.779 829.101,224.215 829.252,228.292 L829.252,230.557 C826.534,235.993 823.665,239.919 819.135,240.976 z" fill-opacity="0" stroke="#953CD0" stroke-width="4"/>
    </g>
    <g>
      <path d="M851.901,247.771 L852.203,247.771 C852.505,247.922 852.958,247.922 853.109,247.771 C854.62,247.62 855.526,246.261 855.526,244.751 L855.526,244.147 C855.375,242.486 855.073,240.523 854.771,238.409 C854.771,234.181 854.771,227.839 854.62,219.383 C855.526,199.904 858.848,178.613 865.039,166.533 C868.21,160.342 871.833,157.473 875.609,157.926 C877.27,158.077 878.78,156.718 878.931,155.057 C878.931,153.547 877.874,151.886 876.213,151.584 C872.589,151.433 869.418,152.339 866.398,154.906 C861.263,158.832 857.489,166.533 854.469,177.103 C854.318,168.496 854.016,161.097 853.865,154.906 C853.865,153.094 852.203,151.886 850.694,151.886 C849.033,152.037 847.674,153.547 847.674,155.208 C847.976,164.117 848.278,176.348 848.429,192.354 L848.429,207.907 L848.429,219.232 C848.429,222.252 848.278,225.272 848.278,227.99 C848.278,231.916 848.429,235.389 848.58,238.711 C848.731,240.674 848.731,242.788 848.731,244.902 C849.033,246.412 850.392,247.771 851.901,247.771 z" fill="#953CD0"/>
      <path d="M851.901,247.771 L852.203,247.771 C852.505,247.922 852.958,247.922 853.109,247.771 C854.62,247.62 855.526,246.261 855.526,244.751 L855.526,244.147 C855.375,242.486 855.073,240.523 854.771,238.409 C854.771,234.181 854.771,227.839 854.62,219.383 C855.526,199.904 858.848,178.613 865.039,166.533 C868.21,160.342 871.833,157.473 875.609,157.926 C877.27,158.077 878.78,156.718 878.931,155.057 C878.931,153.547 877.874,151.886 876.213,151.584 C872.589,151.433 869.418,152.339 866.398,154.906 C861.263,158.832 857.489,166.533 854.469,177.103 C854.318,168.496 854.016,161.097 853.865,154.906 C853.865,153.094 852.203,151.886 850.694,151.886 C849.033,152.037 847.674,153.547 847.674,155.208 C847.976,164.117 848.278,176.348 848.429,192.354 L848.429,207.907 L848.429,219.232 C848.429,222.252 848.278,225.272 848.278,227.99 C848.278,231.916 848.429,235.389 848.58,238.711 C848.731,240.674 848.731,242.788 848.731,244.902 C849.033,246.412 850.392,247.771 851.901,247.771 z" fill-opacity="0" stroke="#953CD0" stroke-width="4"/>
    </g>
    <g>
      <path d="M902.487,248.073 C909.433,248.073 915.171,242.939 915.775,236.597 C915.926,234.785 914.416,233.124 912.604,233.124 C911.094,233.124 909.735,234.483 909.584,235.993 C909.282,239.164 906.564,241.882 902.94,241.882 C899.467,242.033 897.504,240.221 897.504,236.295 C897.504,226.48 897.655,208.662 897.655,183.143 L897.655,158.379 C901.279,158.379 905.054,158.228 908.527,158.077 C910.339,158.077 911.547,156.567 911.547,154.906 C911.396,153.094 909.886,151.886 908.225,151.886 C904.752,152.037 901.279,152.188 897.655,152.188 C897.806,143.128 897.806,134.068 897.806,125.159 C897.806,123.498 896.447,121.988 894.786,121.988 C893.125,121.988 891.615,123.347 891.615,125.008 C891.615,134.068 891.615,143.128 891.464,152.188 C888.897,152.188 886.632,152.188 884.971,152.339 C883.461,152.339 881.951,153.698 881.951,155.208 L881.951,155.359 C881.951,157.171 883.461,158.681 884.971,158.681 C886.632,158.379 888.897,158.379 891.464,158.379 L891.464,183.143 C891.464,207.907 891.464,225.272 891.161,235.238 C891.011,243.392 896.145,248.073 902.487,248.073 z" fill="#953CD0"/>
      <path d="M902.487,248.073 C909.433,248.073 915.171,242.939 915.775,236.597 C915.926,234.785 914.416,233.124 912.604,233.124 C911.094,233.124 909.735,234.483 909.584,235.993 C909.282,239.164 906.564,241.882 902.94,241.882 C899.467,242.033 897.504,240.221 897.504,236.295 C897.504,226.48 897.655,208.662 897.655,183.143 L897.655,158.379 C901.279,158.379 905.054,158.228 908.527,158.077 C910.339,158.077 911.547,156.567 911.547,154.906 C911.396,153.094 909.886,151.886 908.225,151.886 C904.752,152.037 901.279,152.188 897.655,152.188 C897.806,143.128 897.806,134.068 897.806,125.159 C897.806,123.498 896.447,121.988 894.786,121.988 C893.125,121.988 891.615,123.347 891.615,125.008 C891.615,134.068 891.615,143.128 891.464,152.188 C888.897,152.188 886.632,152.188 884.971,152.339 C883.461,152.339 881.951,153.698 881.951,155.208 L881.951,155.359 C881.951,157.171 883.461,158.681 884.971,158.681 C886.632,158.379 888.897,158.379 891.464,158.379 L891.464,183.143 C891.464,207.907 891.464,225.272 891.161,235.238 C891.011,243.392 896.145,248.073 902.487,248.073 z" fill-opacity="0" stroke="#953CD0" stroke-width="4"/>
    </g>
    <g>
      <path d="M928.006,247.318 C929.818,247.318 931.328,245.808 931.328,244.298 C931.328,239.013 931.479,233.577 931.479,227.839 C931.479,218.175 931.328,207.756 931.026,196.884 C931.026,195.676 931.026,194.317 930.875,192.656 L930.875,190.089 L930.875,188.277 C930.724,175.291 930.573,164.268 930.271,155.359 C930.271,153.698 928.76,152.339 927.251,152.339 C925.59,152.339 924.08,153.849 924.08,155.359 C924.231,164.268 924.533,175.442 924.684,188.428 L924.684,190.391 L924.684,192.807 C924.835,194.468 924.835,195.827 924.835,196.884 C925.137,206.397 925.137,215.306 925.137,223.913 C925.137,231.01 925.137,237.654 924.986,244.147 C924.986,245.808 926.345,247.318 928.006,247.318 z M927.855,140.863 C929.365,140.863 930.12,139.957 930.724,139.202 C931.328,138.447 931.479,137.692 931.63,136.937 L931.63,136.786 C931.781,136.333 931.781,136.031 932.083,135.729 C932.838,132.256 929.516,131.199 927.251,131.199 C925.288,131.199 923.929,131.954 923.023,133.766 C922.721,134.219 922.57,134.974 922.57,135.729 L922.57,136.333 C922.57,137.239 923.023,138.296 923.476,139.051 C924.835,140.561 926.345,141.014 927.855,140.863 z" fill="#A29F9F"/>
      <path d="M928.006,247.318 C929.818,247.318 931.328,245.808 931.328,244.298 C931.328,239.013 931.479,233.577 931.479,227.839 C931.479,218.175 931.328,207.756 931.026,196.884 C931.026,195.676 931.026,194.317 930.875,192.656 L930.875,190.089 L930.875,188.277 C930.724,175.291 930.573,164.268 930.271,155.359 C930.271,153.698 928.76,152.339 927.251,152.339 C925.59,152.339 924.08,153.849 924.08,155.359 C924.231,164.268 924.533,175.442 924.684,188.428 L924.684,190.391 L924.684,192.807 C924.835,194.468 924.835,195.827 924.835,196.884 C925.137,206.397 925.137,215.306 925.137,223.913 C925.137,231.01 925.137,237.654 924.986,244.147 C924.986,245.808 926.345,247.318 928.006,247.318 z M927.855,140.863 C929.365,140.863 930.12,139.957 930.724,139.202 C931.328,138.447 931.479,137.692 931.63,136.937 L931.63,136.786 C931.781,136.333 931.781,136.031 932.083,135.729 C932.838,132.256 929.516,131.199 927.251,131.199 C925.288,131.199 923.929,131.954 923.023,133.766 C922.721,134.219 922.57,134.974 922.57,135.729 L922.57,136.333 C922.57,137.239 923.023,138.296 923.476,139.051 C924.835,140.561 926.345,141.014 927.855,140.863 z" fill-opacity="0" stroke="#A29F9F" stroke-width="4"/>
    </g>
    <g>
      <path d="M958.357,247.771 C964.548,247.771 968.474,241.278 968.474,233.124 C968.474,231.614 966.964,230.104 965.454,230.104 C963.793,230.104 962.283,231.614 962.283,233.124 C962.283,235.691 961.679,238.107 960.622,240.221 C960.169,240.674 959.867,241.127 959.263,241.278 C957.299,241.429 955.639,240.372 954.28,237.956 C952.619,235.087 951.562,230.708 950.505,225.121 C949.448,218.024 948.844,210.323 948.844,201.263 C948.844,182.388 952.317,161.248 961.83,157.926 C961.83,158.077 961.83,158.077 962.132,158.228 C962.283,159.134 962.283,160.191 962.283,161.55 L962.283,163.211 C962.283,164.721 963.642,166.382 965.303,166.382 C966.812,166.533 968.474,165.174 968.474,163.513 C968.625,160.946 968.474,158.681 968.172,156.718 C967.266,154.151 965.454,151.584 962.585,151.584 C962.132,151.584 961.377,151.584 960.773,151.886 C952.619,153.849 947.938,162.758 945.522,173.479 C943.71,181.331 942.804,192.052 942.804,202.622 C942.804,210.927 943.257,219.081 944.314,226.027 C946.277,237.956 950.354,247.771 958.357,247.771 z" fill="#A29F9F"/>
      <path d="M958.357,247.771 C964.548,247.771 968.474,241.278 968.474,233.124 C968.474,231.614 966.964,230.104 965.454,230.104 C963.793,230.104 962.283,231.614 962.283,233.124 C962.283,235.691 961.679,238.107 960.622,240.221 C960.169,240.674 959.867,241.127 959.263,241.278 C957.299,241.429 955.639,240.372 954.28,237.956 C952.619,235.087 951.562,230.708 950.505,225.121 C949.448,218.024 948.844,210.323 948.844,201.263 C948.844,182.388 952.317,161.248 961.83,157.926 C961.83,158.077 961.83,158.077 962.132,158.228 C962.283,159.134 962.283,160.191 962.283,161.55 L962.283,163.211 C962.283,164.721 963.642,166.382 965.303,166.382 C966.812,166.533 968.474,165.174 968.474,163.513 C968.625,160.946 968.474,158.681 968.172,156.718 C967.266,154.151 965.454,151.584 962.585,151.584 C962.132,151.584 961.377,151.584 960.773,151.886 C952.619,153.849 947.938,162.758 945.522,173.479 C943.71,181.331 942.804,192.052 942.804,202.622 C942.804,210.927 943.257,219.081 944.314,226.027 C946.277,237.956 950.354,247.771 958.357,247.771 z" fill-opacity="0" stroke="#A29F9F" stroke-width="4"/>
    </g>
    <g>
      <path d="M1029.478,248.979 C1033.404,248.979 1037.33,246.865 1040.198,243.543 C1045.484,238.258 1048.051,229.047 1048.051,216.816 C1048.051,214.702 1048.051,212.739 1047.9,210.474 C1047.598,204.132 1046.994,197.639 1045.182,191.901 C1041.859,180.123 1037.934,175.593 1030.686,170.912 C1030.535,170.761 1029.931,170.459 1029.931,170.459 L1029.478,170.157 C1029.176,170.006 1029.176,170.006 1029.176,170.006 C1024.646,167.137 1022.683,165.325 1021.324,161.701 C1019.663,157.775 1018.908,153.094 1018.908,148.111 C1018.908,141.316 1020.267,134.068 1023.136,126.971 C1025.401,121.384 1029.629,116.703 1033.706,116.703 C1036.424,116.703 1038.839,118.968 1040.651,124.253 C1041.557,125.461 1042.917,126.216 1044.125,126.216 C1044.427,126.216 1044.729,126.216 1045.031,126.065 C1046.239,125.763 1047.145,124.706 1047.145,123.498 C1047.145,123.196 1047.145,122.894 1046.994,122.592 C1044.276,115.042 1039.443,110.512 1033.404,110.512 C1032.8,110.512 1032.045,110.512 1031.441,110.663 C1024.948,112.173 1019.663,117.609 1016.945,124.857 C1014.076,132.407 1012.566,140.108 1012.566,147.809 C1012.566,153.547 1013.472,158.983 1015.435,163.966 C1017.247,169.1 1020.569,171.818 1026.005,175.593 L1026.156,175.593 L1026.005,175.593 C1026.307,175.744 1026.005,175.593 1027.062,176.348 C1033.404,180.274 1036.575,183.294 1039.141,193.864 C1040.5,199.3 1042.161,208.209 1042.161,216.967 C1042.161,227.235 1039.896,234.785 1035.669,239.013 C1033.404,241.58 1031.592,242.486 1029.629,242.486 C1028.421,242.486 1027.062,242.033 1026.005,240.976 C1022.683,238.258 1020.72,233.426 1020.871,228.594 C1020.871,226.782 1019.059,225.272 1017.549,225.272 C1015.888,225.272 1014.529,226.782 1014.529,228.594 C1014.227,235.087 1017.096,242.033 1021.777,245.657 C1023.74,247.771 1026.458,248.979 1029.478,248.979 z" fill="#A29F9F"/>
      <path d="M1029.478,248.979 C1033.404,248.979 1037.33,246.865 1040.198,243.543 C1045.484,238.258 1048.051,229.047 1048.051,216.816 C1048.051,214.702 1048.051,212.739 1047.9,210.474 C1047.598,204.132 1046.994,197.639 1045.182,191.901 C1041.859,180.123 1037.934,175.593 1030.686,170.912 C1030.535,170.761 1029.931,170.459 1029.931,170.459 L1029.478,170.157 C1029.176,170.006 1029.176,170.006 1029.176,170.006 C1024.646,167.137 1022.683,165.325 1021.324,161.701 C1019.663,157.775 1018.908,153.094 1018.908,148.111 C1018.908,141.316 1020.267,134.068 1023.136,126.971 C1025.401,121.384 1029.629,116.703 1033.706,116.703 C1036.424,116.703 1038.839,118.968 1040.651,124.253 C1041.557,125.461 1042.917,126.216 1044.125,126.216 C1044.427,126.216 1044.729,126.216 1045.031,126.065 C1046.239,125.763 1047.145,124.706 1047.145,123.498 C1047.145,123.196 1047.145,122.894 1046.994,122.592 C1044.276,115.042 1039.443,110.512 1033.404,110.512 C1032.8,110.512 1032.045,110.512 1031.441,110.663 C1024.948,112.173 1019.663,117.609 1016.945,124.857 C1014.076,132.407 1012.566,140.108 1012.566,147.809 C1012.566,153.547 1013.472,158.983 1015.435,163.966 C1017.247,169.1 1020.569,171.818 1026.005,175.593 L1026.156,175.593 L1026.005,175.593 C1026.307,175.744 1026.005,175.593 1027.062,176.348 C1033.404,180.274 1036.575,183.294 1039.141,193.864 C1040.5,199.3 1042.161,208.209 1042.161,216.967 C1042.161,227.235 1039.896,234.785 1035.669,239.013 C1033.404,241.58 1031.592,242.486 1029.629,242.486 C1028.421,242.486 1027.062,242.033 1026.005,240.976 C1022.683,238.258 1020.72,233.426 1020.871,228.594 C1020.871,226.782 1019.059,225.272 1017.549,225.272 C1015.888,225.272 1014.529,226.782 1014.529,228.594 C1014.227,235.087 1017.096,242.033 1021.777,245.657 C1023.74,247.771 1026.458,248.979 1029.478,248.979 z" fill-opacity="0" stroke="#A29F9F" stroke-width="4"/>
    </g>
    <g>
      <path d="M1061.792,298.356 C1063.453,298.356 1064.963,296.997 1064.963,295.336 C1065.416,287.786 1065.567,279.632 1065.567,270.723 C1065.567,266.193 1065.416,261.663 1065.416,256.831 C1065.416,251.395 1065.416,245.657 1065.114,239.617 C1065.567,239.768 1065.869,239.768 1066.171,239.768 C1071.456,239.768 1080.062,233.426 1081.724,227.537 C1083.989,221.346 1085.952,206.85 1085.952,192.656 C1085.952,189.032 1085.801,185.559 1085.499,182.086 C1083.989,163.966 1078.552,150.678 1067.228,150.678 C1065.567,150.678 1063.906,150.829 1062.094,151.433 C1061.641,151.282 1061.188,151.131 1060.583,151.131 C1058.922,151.131 1057.412,152.641 1057.412,154.151 L1057.412,164.268 C1057.412,177.556 1057.563,195.374 1058.318,217.571 L1058.318,218.326 C1058.922,238.56 1059.375,253.811 1059.375,267.703 C1059.375,277.216 1059.073,285.974 1058.771,295.185 C1058.771,296.846 1060.13,298.356 1061.792,298.356 z M1064.963,233.728 C1064.812,229.802 1064.812,224.517 1064.661,218.024 L1064.661,217.269 C1063.755,195.978 1063.604,179.066 1063.604,166.382 L1063.604,157.473 C1064.661,157.171 1065.718,157.02 1066.775,157.02 C1069.795,157.02 1072.361,158.53 1074.173,161.852 C1076.891,166.382 1078.552,173.328 1079.307,182.539 C1079.609,185.861 1079.76,189.334 1079.76,192.807 C1079.76,206.246 1077.948,219.987 1075.985,225.423 C1075.381,227.084 1073.871,229.047 1071.456,230.859 C1070.248,231.916 1069.191,232.369 1068.134,232.973 C1067.681,233.124 1067.228,233.124 1066.926,233.426 C1066.624,233.577 1066.322,233.577 1066.171,233.577 C1065.718,233.577 1065.416,233.577 1064.963,233.728 z" fill="#A29F9F"/>
      <path d="M1061.792,298.356 C1063.453,298.356 1064.963,296.997 1064.963,295.336 C1065.416,287.786 1065.567,279.632 1065.567,270.723 C1065.567,266.193 1065.416,261.663 1065.416,256.831 C1065.416,251.395 1065.416,245.657 1065.114,239.617 C1065.567,239.768 1065.869,239.768 1066.171,239.768 C1071.456,239.768 1080.062,233.426 1081.724,227.537 C1083.989,221.346 1085.952,206.85 1085.952,192.656 C1085.952,189.032 1085.801,185.559 1085.499,182.086 C1083.989,163.966 1078.552,150.678 1067.228,150.678 C1065.567,150.678 1063.906,150.829 1062.094,151.433 C1061.641,151.282 1061.188,151.131 1060.583,151.131 C1058.922,151.131 1057.412,152.641 1057.412,154.151 L1057.412,164.268 C1057.412,177.556 1057.563,195.374 1058.318,217.571 L1058.318,218.326 C1058.922,238.56 1059.375,253.811 1059.375,267.703 C1059.375,277.216 1059.073,285.974 1058.771,295.185 C1058.771,296.846 1060.13,298.356 1061.792,298.356 z M1064.963,233.728 C1064.812,229.802 1064.812,224.517 1064.661,218.024 L1064.661,217.269 C1063.755,195.978 1063.604,179.066 1063.604,166.382 L1063.604,157.473 C1064.661,157.171 1065.718,157.02 1066.775,157.02 C1069.795,157.02 1072.361,158.53 1074.173,161.852 C1076.891,166.382 1078.552,173.328 1079.307,182.539 C1079.609,185.861 1079.76,189.334 1079.76,192.807 C1079.76,206.246 1077.948,219.987 1075.985,225.423 C1075.381,227.084 1073.871,229.047 1071.456,230.859 C1070.248,231.916 1069.191,232.369 1068.134,232.973 C1067.681,233.124 1067.228,233.124 1066.926,233.426 C1066.624,233.577 1066.322,233.577 1066.171,233.577 C1065.718,233.577 1065.416,233.577 1064.963,233.728 z" fill-opacity="0" stroke="#A29F9F" stroke-width="4"/>
    </g>
    <g>
      <path d="M1114.49,247.62 C1116.604,247.62 1118.87,247.016 1121.286,245.959 C1121.739,245.808 1122.041,245.657 1122.192,245.506 C1125.514,243.694 1127.778,241.731 1128.835,239.013 C1129.741,236.748 1129.741,234.634 1129.59,232.218 L1129.59,230.859 C1129.59,229.198 1128.231,227.688 1126.57,227.537 C1124.91,227.537 1123.4,228.896 1123.4,230.557 L1123.4,232.822 C1123.551,234.483 1123.4,235.842 1123.249,236.597 C1122.494,238.258 1120.531,239.617 1117.359,240.674 C1117.208,240.976 1116.755,241.127 1116.604,241.278 C1116,241.429 1115.396,241.429 1114.943,241.429 C1111.772,241.429 1109.205,239.466 1106.941,235.087 C1102.411,226.631 1100.901,214.098 1100.901,203.075 C1100.901,198.092 1101.203,193.411 1101.656,189.636 L1102.109,189.636 L1103.166,189.636 C1103.921,189.636 1104.827,189.636 1105.884,189.334 C1111.168,189.334 1117.51,189.183 1122.645,189.032 L1125.212,189.032 L1126.419,189.032 C1127.929,189.032 1129.288,187.673 1129.439,186.163 C1129.59,183.747 1129.741,181.331 1129.741,179.217 C1129.741,171.818 1128.533,165.778 1126.268,160.946 C1123.551,155.51 1119.625,152.641 1115.094,152.641 C1113.433,152.641 1111.621,153.094 1109.658,153.849 C1104.374,156.416 1100.297,163.513 1097.729,174.989 C1095.766,183.294 1094.86,192.807 1094.86,202.32 C1094.86,216.061 1096.974,229.5 1101.354,237.956 C1104.676,244.147 1109.205,247.62 1114.49,247.62 z M1102.411,183.294 C1102.864,180.878 1103.166,178.462 1103.77,176.348 C1105.884,166.684 1108.601,161.248 1112.225,159.587 C1113.282,159.134 1114.188,158.983 1115.094,158.983 C1117.208,158.983 1118.87,160.342 1120.531,163.513 C1122.796,168.194 1123.702,174.687 1123.4,182.841 L1122.947,182.841 L1122.494,182.841 C1117.359,182.992 1110.866,183.143 1105.884,183.143 C1104.676,183.294 1103.77,183.294 1103.015,183.294 z" fill="#A29F9F"/>
      <path d="M1114.49,247.62 C1116.604,247.62 1118.87,247.016 1121.286,245.959 C1121.739,245.808 1122.041,245.657 1122.192,245.506 C1125.514,243.694 1127.778,241.731 1128.835,239.013 C1129.741,236.748 1129.741,234.634 1129.59,232.218 L1129.59,230.859 C1129.59,229.198 1128.231,227.688 1126.57,227.537 C1124.91,227.537 1123.4,228.896 1123.4,230.557 L1123.4,232.822 C1123.551,234.483 1123.4,235.842 1123.249,236.597 C1122.494,238.258 1120.531,239.617 1117.359,240.674 C1117.208,240.976 1116.755,241.127 1116.604,241.278 C1116,241.429 1115.396,241.429 1114.943,241.429 C1111.772,241.429 1109.205,239.466 1106.941,235.087 C1102.411,226.631 1100.901,214.098 1100.901,203.075 C1100.901,198.092 1101.203,193.411 1101.656,189.636 L1102.109,189.636 L1103.166,189.636 C1103.921,189.636 1104.827,189.636 1105.884,189.334 C1111.168,189.334 1117.51,189.183 1122.645,189.032 L1125.212,189.032 L1126.419,189.032 C1127.929,189.032 1129.288,187.673 1129.439,186.163 C1129.59,183.747 1129.741,181.331 1129.741,179.217 C1129.741,171.818 1128.533,165.778 1126.268,160.946 C1123.551,155.51 1119.625,152.641 1115.094,152.641 C1113.433,152.641 1111.621,153.094 1109.658,153.849 C1104.374,156.416 1100.297,163.513 1097.729,174.989 C1095.766,183.294 1094.86,192.807 1094.86,202.32 C1094.86,216.061 1096.974,229.5 1101.354,237.956 C1104.676,244.147 1109.205,247.62 1114.49,247.62 z M1102.411,183.294 C1102.864,180.878 1103.166,178.462 1103.77,176.348 C1105.884,166.684 1108.601,161.248 1112.225,159.587 C1113.282,159.134 1114.188,158.983 1115.094,158.983 C1117.208,158.983 1118.87,160.342 1120.531,163.513 C1122.796,168.194 1123.702,174.687 1123.4,182.841 L1122.947,182.841 L1122.494,182.841 C1117.359,182.992 1110.866,183.143 1105.884,183.143 C1104.676,183.294 1103.77,183.294 1103.015,183.294 z" fill-opacity="0" stroke="#A29F9F" stroke-width="4"/>
    </g>
    <g>
      <path d="M1152.844,247.771 C1159.036,247.771 1162.962,241.278 1162.962,233.124 C1162.962,231.614 1161.452,230.104 1159.942,230.104 C1158.281,230.104 1156.771,231.614 1156.771,233.124 C1156.771,235.691 1156.167,238.107 1155.109,240.221 C1154.656,240.674 1154.354,241.127 1153.75,241.278 C1151.787,241.429 1150.126,240.372 1148.767,237.956 C1147.106,235.087 1146.049,230.708 1144.992,225.121 C1143.936,218.024 1143.332,210.323 1143.332,201.263 C1143.332,182.388 1146.804,161.248 1156.318,157.926 C1156.318,158.077 1156.318,158.077 1156.62,158.228 C1156.771,159.134 1156.771,160.191 1156.771,161.55 L1156.771,163.211 C1156.771,164.721 1158.13,166.382 1159.791,166.382 C1161.301,166.533 1162.962,165.174 1162.962,163.513 C1163.113,160.946 1162.962,158.681 1162.66,156.718 C1161.754,154.151 1159.942,151.584 1157.073,151.584 C1156.62,151.584 1155.865,151.584 1155.26,151.886 C1147.106,153.849 1142.426,162.758 1140.01,173.479 C1138.198,181.331 1137.292,192.052 1137.292,202.622 C1137.292,210.927 1137.745,219.081 1138.802,226.027 C1140.765,237.956 1144.841,247.771 1152.844,247.771 z" fill="#A29F9F"/>
      <path d="M1152.844,247.771 C1159.036,247.771 1162.962,241.278 1162.962,233.124 C1162.962,231.614 1161.452,230.104 1159.942,230.104 C1158.281,230.104 1156.771,231.614 1156.771,233.124 C1156.771,235.691 1156.167,238.107 1155.109,240.221 C1154.656,240.674 1154.354,241.127 1153.75,241.278 C1151.787,241.429 1150.126,240.372 1148.767,237.956 C1147.106,235.087 1146.049,230.708 1144.992,225.121 C1143.936,218.024 1143.332,210.323 1143.332,201.263 C1143.332,182.388 1146.804,161.248 1156.318,157.926 C1156.318,158.077 1156.318,158.077 1156.62,158.228 C1156.771,159.134 1156.771,160.191 1156.771,161.55 L1156.771,163.211 C1156.771,164.721 1158.13,166.382 1159.791,166.382 C1161.301,166.533 1162.962,165.174 1162.962,163.513 C1163.113,160.946 1162.962,158.681 1162.66,156.718 C1161.754,154.151 1159.942,151.584 1157.073,151.584 C1156.62,151.584 1155.865,151.584 1155.26,151.886 C1147.106,153.849 1142.426,162.758 1140.01,173.479 C1138.198,181.331 1137.292,192.052 1137.292,202.622 C1137.292,210.927 1137.745,219.081 1138.802,226.027 C1140.765,237.956 1144.841,247.771 1152.844,247.771 z" fill-opacity="0" stroke="#A29F9F" stroke-width="4"/>
    </g>
    <g>
      <path d="M1189.99,248.073 C1196.937,248.073 1202.675,242.939 1203.278,236.597 C1203.429,234.785 1201.92,233.124 1200.108,233.124 C1198.598,233.124 1197.239,234.483 1197.088,235.993 C1196.786,239.164 1194.068,241.882 1190.443,241.882 C1186.97,242.033 1185.007,240.221 1185.007,236.295 C1185.007,226.48 1185.158,208.662 1185.158,183.143 L1185.158,158.379 C1188.782,158.379 1192.557,158.228 1196.031,158.077 C1197.843,158.077 1199.051,156.567 1199.051,154.906 C1198.9,153.094 1197.39,151.886 1195.729,151.886 C1192.255,152.037 1188.782,152.188 1185.158,152.188 C1185.309,143.128 1185.309,134.068 1185.309,125.159 C1185.309,123.498 1183.951,121.988 1182.29,121.988 C1180.629,121.988 1179.119,123.347 1179.119,125.008 C1179.119,134.068 1179.119,143.128 1178.968,152.188 C1176.401,152.188 1174.135,152.188 1172.474,152.339 C1170.964,152.339 1169.454,153.698 1169.454,155.208 L1169.454,155.359 C1169.454,157.171 1170.964,158.681 1172.474,158.681 C1174.135,158.379 1176.401,158.379 1178.968,158.379 L1178.968,183.143 C1178.968,207.907 1178.968,225.272 1178.666,235.238 C1178.515,243.392 1183.649,248.073 1189.99,248.073 z" fill="#A29F9F"/>
      <path d="M1189.99,248.073 C1196.937,248.073 1202.675,242.939 1203.278,236.597 C1203.429,234.785 1201.92,233.124 1200.108,233.124 C1198.598,233.124 1197.239,234.483 1197.088,235.993 C1196.786,239.164 1194.068,241.882 1190.443,241.882 C1186.97,242.033 1185.007,240.221 1185.007,236.295 C1185.007,226.48 1185.158,208.662 1185.158,183.143 L1185.158,158.379 C1188.782,158.379 1192.557,158.228 1196.031,158.077 C1197.843,158.077 1199.051,156.567 1199.051,154.906 C1198.9,153.094 1197.39,151.886 1195.729,151.886 C1192.255,152.037 1188.782,152.188 1185.158,152.188 C1185.309,143.128 1185.309,134.068 1185.309,125.159 C1185.309,123.498 1183.951,121.988 1182.29,121.988 C1180.629,121.988 1179.119,123.347 1179.119,125.008 C1179.119,134.068 1179.119,143.128 1178.968,152.188 C1176.401,152.188 1174.135,152.188 1172.474,152.339 C1170.964,152.339 1169.454,153.698 1169.454,155.208 L1169.454,155.359 C1169.454,157.171 1170.964,158.681 1172.474,158.681 C1174.135,158.379 1176.401,158.379 1178.968,158.379 L1178.968,183.143 C1178.968,207.907 1178.968,225.272 1178.666,235.238 C1178.515,243.392 1183.649,248.073 1189.99,248.073 z" fill-opacity="0" stroke="#A29F9F" stroke-width="4"/>
    </g>
    <g>
      <path d="M1214.906,247.771 L1215.208,247.771 C1215.51,247.922 1215.963,247.922 1216.114,247.771 C1217.624,247.62 1218.53,246.261 1218.53,244.751 L1218.53,244.147 C1218.379,242.486 1218.077,240.523 1217.775,238.409 C1217.775,234.181 1217.775,227.839 1217.624,219.383 C1218.53,199.904 1221.851,178.613 1228.042,166.533 C1231.214,160.342 1234.838,157.473 1238.612,157.926 C1240.273,158.077 1241.783,156.718 1241.934,155.057 C1241.934,153.547 1240.877,151.886 1239.216,151.584 C1235.593,151.433 1232.422,152.339 1229.401,154.906 C1224.267,158.832 1220.492,166.533 1217.473,177.103 C1217.322,168.496 1217.02,161.097 1216.869,154.906 C1216.869,153.094 1215.208,151.886 1213.698,151.886 C1212.036,152.037 1210.677,153.547 1210.677,155.208 C1210.979,164.117 1211.281,176.348 1211.432,192.354 L1211.432,207.907 L1211.432,219.232 C1211.432,222.252 1211.281,225.272 1211.281,227.99 C1211.281,231.916 1211.432,235.389 1211.583,238.711 C1211.734,240.674 1211.734,242.788 1211.734,244.902 C1212.036,246.412 1213.396,247.771 1214.906,247.771 z" fill="#A29F9F"/>
      <path d="M1214.906,247.771 L1215.208,247.771 C1215.51,247.922 1215.963,247.922 1216.114,247.771 C1217.624,247.62 1218.53,246.261 1218.53,244.751 L1218.53,244.147 C1218.379,242.486 1218.077,240.523 1217.775,238.409 C1217.775,234.181 1217.775,227.839 1217.624,219.383 C1218.53,199.904 1221.851,178.613 1228.042,166.533 C1231.214,160.342 1234.838,157.473 1238.612,157.926 C1240.273,158.077 1241.783,156.718 1241.934,155.057 C1241.934,153.547 1240.877,151.886 1239.216,151.584 C1235.593,151.433 1232.422,152.339 1229.401,154.906 C1224.267,158.832 1220.492,166.533 1217.473,177.103 C1217.322,168.496 1217.02,161.097 1216.869,154.906 C1216.869,153.094 1215.208,151.886 1213.698,151.886 C1212.036,152.037 1210.677,153.547 1210.677,155.208 C1210.979,164.117 1211.281,176.348 1211.432,192.354 L1211.432,207.907 L1211.432,219.232 C1211.432,222.252 1211.281,225.272 1211.281,227.99 C1211.281,231.916 1211.432,235.389 1211.583,238.711 C1211.734,240.674 1211.734,242.788 1211.734,244.902 C1212.036,246.412 1213.396,247.771 1214.906,247.771 z" fill-opacity="0" stroke="#A29F9F" stroke-width="4"/>
    </g>
    <g>
      <path d="M1282.1,248.979 C1282.402,248.979 1282.553,248.828 1282.855,248.828 C1283.912,248.526 1285.12,247.62 1285.12,246.261 C1285.12,246.11 1285.12,245.808 1284.969,245.506 C1282.402,232.52 1281.496,217.42 1281.496,198.394 C1281.496,191.146 1281.647,183.294 1281.798,174.838 C1281.949,163.664 1282.1,156.718 1281.949,153.849 C1281.798,152.188 1280.288,151.131 1278.929,151.131 C1278.023,151.131 1277.268,151.433 1276.664,152.188 C1276.211,152.641 1275.909,153.245 1275.909,154 L1275.909,154.453 C1276.06,156.265 1276.211,158.228 1276.211,160.644 C1276.211,167.439 1275.456,176.952 1274.399,189.032 L1272.739,203.679 C1272.588,206.548 1271.984,211.531 1271.38,215.759 C1270.625,220.289 1270.021,224.517 1269.87,227.084 C1269.719,228.443 1269.719,229.198 1269.719,229.349 C1269.266,232.671 1268.359,235.238 1266.849,237.503 C1265.037,240.221 1262.621,241.731 1260.507,241.731 C1259.45,241.731 1258.393,241.278 1257.638,240.523 C1255.977,239.013 1254.921,236.144 1254.619,232.671 C1254.015,227.537 1253.713,220.893 1253.864,212.437 L1253.864,196.884 C1253.864,194.619 1253.713,191.599 1253.713,187.975 C1253.713,184.351 1253.864,179.972 1253.864,174.838 C1254.015,168.949 1254.015,164.57 1254.015,160.191 L1254.015,154.604 C1254.015,153.094 1252.505,151.886 1251.146,151.886 C1249.484,151.886 1248.125,153.094 1248.125,154.906 C1248.276,156.869 1248.276,158.681 1248.276,160.493 C1248.276,164.721 1248.125,168.949 1247.974,174.687 C1247.974,179.821 1247.823,184.351 1247.823,188.126 C1247.823,191.901 1247.974,194.921 1247.974,197.337 L1247.974,212.437 C1247.823,220.893 1248.125,227.839 1248.729,233.426 C1249.938,242.335 1254.317,247.62 1260.507,247.62 C1267.906,247.62 1274.399,240.07 1275.607,229.953 L1275.607,229.349 C1275.607,228.896 1275.607,228.292 1275.758,227.386 L1276.06,224.668 L1276.513,224.668 C1277.117,232.973 1278.023,240.372 1279.382,246.714 C1279.533,247.922 1280.59,248.979 1282.1,248.979 z" fill="#A29F9F"/>
      <path d="M1282.1,248.979 C1282.402,248.979 1282.553,248.828 1282.855,248.828 C1283.912,248.526 1285.12,247.62 1285.12,246.261 C1285.12,246.11 1285.12,245.808 1284.969,245.506 C1282.402,232.52 1281.496,217.42 1281.496,198.394 C1281.496,191.146 1281.647,183.294 1281.798,174.838 C1281.949,163.664 1282.1,156.718 1281.949,153.849 C1281.798,152.188 1280.288,151.131 1278.929,151.131 C1278.023,151.131 1277.268,151.433 1276.664,152.188 C1276.211,152.641 1275.909,153.245 1275.909,154 L1275.909,154.453 C1276.06,156.265 1276.211,158.228 1276.211,160.644 C1276.211,167.439 1275.456,176.952 1274.399,189.032 L1272.739,203.679 C1272.588,206.548 1271.984,211.531 1271.38,215.759 C1270.625,220.289 1270.021,224.517 1269.87,227.084 C1269.719,228.443 1269.719,229.198 1269.719,229.349 C1269.266,232.671 1268.359,235.238 1266.849,237.503 C1265.037,240.221 1262.621,241.731 1260.507,241.731 C1259.45,241.731 1258.393,241.278 1257.638,240.523 C1255.977,239.013 1254.921,236.144 1254.619,232.671 C1254.015,227.537 1253.713,220.893 1253.864,212.437 L1253.864,196.884 C1253.864,194.619 1253.713,191.599 1253.713,187.975 C1253.713,184.351 1253.864,179.972 1253.864,174.838 C1254.015,168.949 1254.015,164.57 1254.015,160.191 L1254.015,154.604 C1254.015,153.094 1252.505,151.886 1251.146,151.886 C1249.484,151.886 1248.125,153.094 1248.125,154.906 C1248.276,156.869 1248.276,158.681 1248.276,160.493 C1248.276,164.721 1248.125,168.949 1247.974,174.687 C1247.974,179.821 1247.823,184.351 1247.823,188.126 C1247.823,191.901 1247.974,194.921 1247.974,197.337 L1247.974,212.437 C1247.823,220.893 1248.125,227.839 1248.729,233.426 C1249.938,242.335 1254.317,247.62 1260.507,247.62 C1267.906,247.62 1274.399,240.07 1275.607,229.953 L1275.607,229.349 C1275.607,228.896 1275.607,228.292 1275.758,227.386 L1276.06,224.668 L1276.513,224.668 C1277.117,232.973 1278.023,240.372 1279.382,246.714 C1279.533,247.922 1280.59,248.979 1282.1,248.979 z" fill-opacity="0" stroke="#A29F9F" stroke-width="4"/>
    </g>
    <g>
      <path d="M1324.683,247.167 L1324.985,247.167 C1326.646,247.167 1328.005,245.657 1328.005,244.147 C1328.005,243.09 1327.854,241.731 1327.854,240.07 C1327.854,238.409 1328.005,236.446 1328.005,234.181 L1328.609,223.611 L1328.609,220.138 C1328.911,213.192 1329.213,207.454 1329.364,202.924 C1329.364,199.753 1329.364,196.733 1329.515,193.864 L1329.515,193.713 C1329.515,188.428 1329.364,171.063 1330.874,165.627 C1331.931,160.946 1335.253,158.832 1338.122,158.832 C1339.481,158.832 1340.84,159.436 1341.746,160.342 C1343.558,162.003 1344.766,164.872 1345.823,168.798 C1347.635,175.895 1348.088,184.955 1348.088,194.468 C1348.088,203.83 1347.635,213.645 1347.031,222.101 C1346.88,223.913 1346.88,226.178 1346.729,228.896 C1346.578,231.463 1346.578,233.577 1346.276,235.087 C1346.125,239.164 1346.125,242.184 1346.125,243.996 C1346.276,245.506 1347.484,246.714 1349.145,246.714 L1349.598,246.714 C1351.108,246.714 1352.316,245.506 1352.316,243.996 L1352.316,243.543 C1352.316,240.523 1352.769,234.483 1352.92,229.198 L1353.373,222.403 C1353.826,213.947 1354.43,204.132 1354.43,194.619 C1354.43,184.653 1353.826,174.989 1351.863,167.288 C1350.504,162.154 1348.541,158.379 1346.125,155.963 C1343.86,153.698 1340.991,152.641 1338.122,152.641 C1333.139,152.641 1328.005,155.812 1325.74,161.097 C1324.834,158.681 1323.475,156.869 1321.814,155.812 C1319.096,154 1316.68,153.094 1314.415,153.094 C1311.244,153.094 1308.375,154.906 1305.959,158.681 C1305.506,159.134 1305.204,159.738 1304.751,160.493 L1304.751,153.094 C1304.751,151.584 1303.241,150.074 1301.731,150.074 C1300.07,150.074 1298.56,151.584 1298.56,153.094 C1298.56,162.456 1298.56,173.328 1298.409,186.163 C1298.258,190.542 1298.258,196.733 1297.956,204.434 C1297.805,222.856 1297.654,235.993 1297.503,243.694 C1297.503,245.506 1299.013,246.714 1300.674,246.714 C1302.335,246.714 1303.694,245.506 1303.694,243.694 L1304.298,204.736 C1304.298,202.018 1304.298,199.753 1304.449,198.092 C1304.449,197.941 1304.449,197.488 1304.6,197.337 L1304.6,196.884 C1304.6,196.733 1304.6,195.374 1304.751,193.109 C1305.053,191.146 1305.053,189.787 1305.053,189.183 C1305.808,180.274 1307.016,168.043 1311.093,162.003 C1311.999,160.644 1313.056,159.738 1314.113,159.587 C1316.378,158.983 1319.398,160.644 1320.606,165.174 C1321.361,167.741 1321.965,170.912 1322.569,174.838 C1323.173,180.425 1323.324,186.767 1323.324,193.26 C1323.324,202.471 1322.871,211.833 1322.569,219.836 C1322.418,220.289 1322.116,226.027 1322.116,227.386 C1321.965,232.822 1321.663,239.768 1321.814,244.298 C1321.814,245.808 1323.173,247.167 1324.683,247.167 z" fill="#A29F9F"/>
      <path d="M1324.683,247.167 L1324.985,247.167 C1326.646,247.167 1328.005,245.657 1328.005,244.147 C1328.005,243.09 1327.854,241.731 1327.854,240.07 C1327.854,238.409 1328.005,236.446 1328.005,234.181 L1328.609,223.611 L1328.609,220.138 C1328.911,213.192 1329.213,207.454 1329.364,202.924 C1329.364,199.753 1329.364,196.733 1329.515,193.864 L1329.515,193.713 C1329.515,188.428 1329.364,171.063 1330.874,165.627 C1331.931,160.946 1335.253,158.832 1338.122,158.832 C1339.481,158.832 1340.84,159.436 1341.746,160.342 C1343.558,162.003 1344.766,164.872 1345.823,168.798 C1347.635,175.895 1348.088,184.955 1348.088,194.468 C1348.088,203.83 1347.635,213.645 1347.031,222.101 C1346.88,223.913 1346.88,226.178 1346.729,228.896 C1346.578,231.463 1346.578,233.577 1346.276,235.087 C1346.125,239.164 1346.125,242.184 1346.125,243.996 C1346.276,245.506 1347.484,246.714 1349.145,246.714 L1349.598,246.714 C1351.108,246.714 1352.316,245.506 1352.316,243.996 L1352.316,243.543 C1352.316,240.523 1352.769,234.483 1352.92,229.198 L1353.373,222.403 C1353.826,213.947 1354.43,204.132 1354.43,194.619 C1354.43,184.653 1353.826,174.989 1351.863,167.288 C1350.504,162.154 1348.541,158.379 1346.125,155.963 C1343.86,153.698 1340.991,152.641 1338.122,152.641 C1333.139,152.641 1328.005,155.812 1325.74,161.097 C1324.834,158.681 1323.475,156.869 1321.814,155.812 C1319.096,154 1316.68,153.094 1314.415,153.094 C1311.244,153.094 1308.375,154.906 1305.959,158.681 C1305.506,159.134 1305.204,159.738 1304.751,160.493 L1304.751,153.094 C1304.751,151.584 1303.241,150.074 1301.731,150.074 C1300.07,150.074 1298.56,151.584 1298.56,153.094 C1298.56,162.456 1298.56,173.328 1298.409,186.163 C1298.258,190.542 1298.258,196.733 1297.956,204.434 C1297.805,222.856 1297.654,235.993 1297.503,243.694 C1297.503,245.506 1299.013,246.714 1300.674,246.714 C1302.335,246.714 1303.694,245.506 1303.694,243.694 L1304.298,204.736 C1304.298,202.018 1304.298,199.753 1304.449,198.092 C1304.449,197.941 1304.449,197.488 1304.6,197.337 L1304.6,196.884 C1304.6,196.733 1304.6,195.374 1304.751,193.109 C1305.053,191.146 1305.053,189.787 1305.053,189.183 C1305.808,180.274 1307.016,168.043 1311.093,162.003 C1311.999,160.644 1313.056,159.738 1314.113,159.587 C1316.378,158.983 1319.398,160.644 1320.606,165.174 C1321.361,167.741 1321.965,170.912 1322.569,174.838 C1323.173,180.425 1323.324,186.767 1323.324,193.26 C1323.324,202.471 1322.871,211.833 1322.569,219.836 C1322.418,220.289 1322.116,226.027 1322.116,227.386 C1321.965,232.822 1321.663,239.768 1321.814,244.298 C1321.814,245.808 1323.173,247.167 1324.683,247.167 z" fill-opacity="0" stroke="#A29F9F" stroke-width="4"/>
    </g>
    <path d="M313.057,724.431 L314.149,724.46 L316.359,724.52 L318.604,724.585 L320.884,724.655 L324.365,724.768 L329.121,724.934 L333.997,725.125 L338.993,725.334 L344.106,725.557 L349.331,725.794 L354.664,726.043 L360.083,726.331 L365.597,726.634 L371.204,726.948 L376.843,727.364 L382.187,728.389 L387.383,729.786 L392.644,731.202 L398.504,731.785 L404.619,732.073 L410.796,732.363 L417.032,732.653 L423.322,732.94 L429.662,733.227 L436.046,733.512 L442.47,733.793 L452.172,734.204 L465.203,734.733 L478.312,735.233 L491.463,735.694 L504.619,736.107 L517.742,736.467 L527.542,736.698 L534.048,736.832 L540.522,736.947 L546.965,737.045 L553.368,737.122 L559.73,737.18 L566.046,737.213 L572.31,737.225 L578.518,737.213 L584.667,737.176 L590.749,737.114 L596.764,737.026 L602.703,736.91 L608.565,736.765 L614.344,736.592 L620.036,736.387 L625.635,736.152 L631.139,735.884 L636.543,735.582 L641.841,735.246 L645.748,734.97 L648.319,734.774 L650.858,734.57 L653.368,734.355 L655.847,734.132 L658.297,733.899 L660.716,733.656 L663.104,733.403 L665.461,733.14 L667.784,732.867 L670.076,732.583 L672.335,732.289 L674.56,731.985 L676.751,731.669 L678.907,731.342 L681.028,731.005 L682.085,730.83 L681.598,730.88 L684.528,730.766 L690.361,730.541 L696.155,730.32 L701.909,730.103 L707.625,729.889 L713.301,729.68 L718.939,729.474 L724.539,729.273 L730.1,729.075 L735.623,728.88 L741.108,728.69 L746.555,728.502 L751.965,728.318 L757.337,728.138 L762.671,727.962 L767.969,727.789 L773.229,727.619 L778.452,727.453 L783.639,727.291 L788.788,727.133 L793.9,726.977 L798.977,726.826 L804.016,726.677 L809.021,726.532 L813.988,726.391 L818.92,726.253 L823.817,726.118 L828.679,725.986 L833.503,725.858 L838.293,725.733 L843.048,725.611 L847.768,725.493 L852.454,725.377 L857.104,725.265 L864.015,725.102 L873.112,724.896 L882.07,724.702 L890.894,724.52 L899.585,724.349 L908.144,724.189 L916.571,724.04 L924.869,723.902 L933.036,723.775 L941.076,723.658 L948.99,723.552 L956.778,723.456 L964.442,723.371 L971.984,723.294 L979.403,723.228 L986.701,723.171 L993.88,723.123 L1000.941,723.084 L1007.884,723.053 L1014.711,723.031 L1021.423,723.018 L1028.022,723.012 L1034.509,723.014 L1040.884,723.024 L1047.149,723.042 L1053.306,723.066 L1059.354,723.098 L1065.296,723.136 L1071.133,723.181 L1076.865,723.232 L1082.494,723.29 L1088.022,723.353 L1093.45,723.422 L1098.777,723.497 L1104.006,723.576 L1109.139,723.66 L1114.175,723.75 L1119.117,723.844 L1123.965,723.942 L1128.722,724.045 L1133.386,724.151 L1137.961,724.262 L1142.447,724.376 L1146.844,724.493 L1151.156,724.614 L1155.383,724.737 L1159.525,724.863 L1163.585,724.992 L1167.563,725.123 L1171.461,725.257 L1175.278,725.392 L1179.018,725.529 L1182.681,725.667 L1186.268,725.806 L1189.78,725.947 L1193.218,726.088 L1196.585,726.23 L1199.881,726.373 L1203.107,726.515 L1206.264,726.658 L1209.353,726.8 L1212.377,726.942 L1215.335,727.083 L1218.229,727.224 L1221.061,727.363 L1223.831,727.501 L1226.541,727.638 L1229.192,727.772 L1231.784,727.905 L1234.32,728.036 L1236.8,728.164 L1239.227,728.29 L1241.599,728.413 L1243.92,728.533 L1246.19,728.65 L1248.411,728.763 L1250.582,728.873 L1252.708,728.979 L1254.787,729.08 L1256.822,729.178 L1258.812,729.271 L1260.761,729.359 L1262.668,729.442 L1264.536,729.52 L1266.365,729.593 L1268.156,729.66 L1269.911,729.722 L1271.631,729.778 L1273.317,729.827 L1274.971,729.87 L1276.593,729.906 L1278.967,729.948 L1282.035,729.977 L1285.001,729.977 L1287.873,729.944 L1290.661,729.877 L1293.375,729.773 L1296.024,729.632 L1298.617,729.45 L1301.165,729.227 L1303.677,728.96 L1304.938,728.807 L1304.938,728.807 C1304.941,728.807 1304.944,728.807 1304.947,728.806 L1304.947,728.806 L1305.31,728.761 L1306.069,728.674 L1306.894,728.586 L1307.794,728.497 L1308.766,728.407 L1309.807,728.316 L1310.917,728.225 L1312.093,728.133 L1313.334,728.04 L1314.639,727.948 L1316.004,727.855 L1317.431,727.762 L1318.917,727.669 L1320.462,727.576 L1322.063,727.483 L1323.719,727.39 L1325.43,727.297 L1327.193,727.205 L1329.009,727.112 L1330.875,727.02 L1332.79,726.929 L1334.754,726.837 L1336.764,726.747 L1338.82,726.656 L1340.921,726.567 L1343.064,726.477 L1345.25,726.389 L1347.476,726.301 L1349.743,726.214 L1352.048,726.128 L1355.575,726 L1360.403,725.833 L1365.361,725.67 L1370.443,725.512 L1375.637,725.359 L1380.937,725.211 L1386.33,725.069 L1391.808,724.933 L1397.362,724.803 L1402.981,724.681 L1408.657,724.565 L1414.379,724.458 L1420.139,724.359 L1428.83,724.225 L1440.46,724.08 L1452.067,723.974 L1460.711,723.923 L1466.427,723.902 L1472.096,723.894 L1477.707,723.897 L1483.251,723.913 L1488.719,723.942 L1494.1,723.984 L1499.385,724.04 L1504.565,724.109 L1509.631,724.193 L1514.572,724.292 L1518.189,724.376 L1520.556,724.437 L1522.888,724.502 L1525.182,724.571 L1527.437,724.644 L1529.652,724.72 L1531.826,724.801 L1533.957,724.886 L1536.045,724.976 L1538.087,725.069 L1540.084,725.167 L1542.033,725.269 L1543.933,725.376 L1545.784,725.487 L1547.584,725.602 L1549.331,725.722 L1551.024,725.846 L1552.663,725.975 L1554.246,726.109 L1555.771,726.247 L1557.238,726.39 L1558.644,726.538 L1559.99,726.69 L1561.273,726.847 L1562.491,727.008 L1563.644,727.174 L1564.729,727.344 L1565.746,727.519 L1566.693,727.698 L1567.567,727.881 L1568.367,728.068 L1569.091,728.257 L1569.737,728.449 L1570.301,728.641 L1570.78,728.832 L1571.17,729.018 L1571.468,729.194 L1571.667,729.349 L1571.692,729.381 L1571.692,729.381 C1572.703,730.31 1575.077,729.475 1576.996,727.515 C1578.915,725.555 1579.651,723.214 1578.641,722.285 C1578.641,722.285 1578.641,722.285 1578.641,722.285 L1578.406,722.079 L1577.967,721.764 L1577.47,721.481 L1576.913,721.219 L1576.294,720.973 L1575.612,720.74 L1574.865,720.516 L1574.053,720.301 L1573.176,720.093 L1572.235,719.893 L1571.229,719.699 L1570.159,719.511 L1569.026,719.328 L1567.832,719.152 L1566.575,718.98 L1565.259,718.814 L1563.883,718.653 L1562.449,718.498 L1560.956,718.347 L1559.408,718.201 L1557.803,718.06 L1556.145,717.923 L1554.434,717.791 L1552.669,717.664 L1550.855,717.541 L1548.99,717.423 L1547.078,717.309 L1545.116,717.2 L1543.109,717.095 L1541.056,716.994 L1538.96,716.897 L1536.82,716.805 L1534.638,716.716 L1532.415,716.632 L1530.154,716.552 L1527.854,716.475 L1525.516,716.403 L1523.141,716.334 L1519.515,716.239 L1514.567,716.124 L1509.495,716.024 L1504.309,715.938 L1499.02,715.866 L1493.635,715.808 L1488.166,715.762 L1482.62,715.73 L1477.007,715.71 L1471.338,715.702 L1465.619,715.705 L1456.974,715.731 L1445.369,715.803 L1433.744,715.914 L1425.058,716.022 L1419.299,716.105 L1413.578,716.197 L1407.903,716.296 L1402.284,716.403 L1396.731,716.516 L1391.254,716.637 L1385.86,716.764 L1380.561,716.897 L1375.365,717.036 L1370.282,717.18 L1365.322,717.33 L1360.494,717.483 L1356.965,717.601 L1354.657,717.681 L1352.389,717.762 L1350.159,717.844 L1347.971,717.926 L1345.823,718.01 L1343.719,718.094 L1341.659,718.179 L1339.644,718.265 L1337.676,718.351 L1335.754,718.438 L1333.882,718.525 L1332.06,718.613 L1330.288,718.701 L1328.569,718.79 L1326.902,718.879 L1325.291,718.969 L1323.735,719.058 L1322.235,719.148 L1320.793,719.238 L1319.41,719.329 L1318.086,719.419 L1316.824,719.51 L1315.622,719.601 L1314.484,719.692 L1313.408,719.783 L1312.396,719.874 L1311.448,719.966 L1310.564,720.058 L1309.754,720.149 L1309.387,720.194 L1309.396,720.193 L1308.234,720.331 L1305.849,720.58 L1303.419,720.787 L1300.931,720.956 L1298.379,721.086 L1295.752,721.18 L1293.041,721.238 L1290.236,721.263 L1287.33,721.256 L1284.31,721.218 L1281.966,721.171 L1280.365,721.131 L1278.732,721.084 L1277.065,721.031 L1275.363,720.971 L1273.624,720.905 L1271.847,720.834 L1270.032,720.756 L1268.178,720.673 L1266.282,720.585 L1264.343,720.492 L1262.362,720.394 L1260.337,720.291 L1258.266,720.184 L1256.148,720.073 L1253.981,719.958 L1251.767,719.839 L1249.502,719.716 L1247.186,719.59 L1244.816,719.461 L1242.394,719.329 L1239.917,719.194 L1237.383,719.057 L1234.793,718.917 L1232.144,718.776 L1229.436,718.632 L1226.667,718.487 L1223.837,718.34 L1220.943,718.192 L1217.986,718.043 L1214.963,717.893 L1211.873,717.742 L1208.716,717.591 L1205.491,717.44 L1202.195,717.289 L1198.828,717.138 L1195.388,716.987 L1191.876,716.837 L1188.288,716.688 L1184.625,716.54 L1180.885,716.394 L1177.066,716.248 L1173.169,716.105 L1169.191,715.963 L1165.132,715.824 L1160.989,715.686 L1156.762,715.552 L1152.451,715.42 L1148.052,715.291 L1143.566,715.165 L1138.991,715.043 L1134.326,714.924 L1129.572,714.809 L1124.724,714.698 L1119.782,714.591 L1114.746,714.489 L1109.615,714.391 L1104.386,714.298 L1099.058,714.211 L1093.632,714.129 L1088.105,714.053 L1082.477,713.982 L1076.745,713.917 L1070.91,713.858 L1064.969,713.806 L1058.921,713.76 L1052.767,713.721 L1046.504,713.689 L1040.131,713.664 L1033.646,713.646 L1027.049,713.636 L1020.339,713.634 L1013.514,713.64 L1006.573,713.654 L999.516,713.677 L992.34,713.708 L985.044,713.748 L977.629,713.797 L970.092,713.855 L962.432,713.923 L954.648,714.001 L946.738,714.088 L938.702,714.186 L930.538,714.293 L922.246,714.412 L913.823,714.541 L905.271,714.681 L896.585,714.833 L887.765,714.997 L878.81,715.173 L869.721,715.36 L862.813,715.509 L858.165,715.611 L853.483,715.717 L848.765,715.826 L844.012,715.938 L839.225,716.054 L834.401,716.172 L829.543,716.294 L824.65,716.419 L819.721,716.547 L814.756,716.678 L809.755,716.813 L804.717,716.951 L799.644,717.093 L794.534,717.237 L789.387,717.386 L784.205,717.537 L778.985,717.692 L773.728,717.851 L768.434,718.013 L763.102,718.179 L757.734,718.348 L752.328,718.521 L746.884,718.698 L741.401,718.879 L735.881,719.063 L730.323,719.252 L724.726,719.444 L719.091,719.64 L713.416,719.84 L707.704,720.043 L701.952,720.251 L696.162,720.462 L690.332,720.677 L687.402,720.786 L687.402,720.786 C687.245,720.792 687.083,720.809 686.915,720.837 L686.915,720.837 L685.912,721.001 L683.857,721.325 L681.764,721.639 L679.633,721.943 L677.465,722.236 L675.262,722.52 L673.022,722.794 L670.745,723.057 L668.437,723.311 L666.093,723.556 L663.717,723.791 L661.308,724.016 L658.865,724.232 L656.394,724.439 L653.891,724.637 L651.362,724.825 L647.511,725.092 L642.271,725.418 L636.923,725.71 L631.47,725.968 L625.918,726.195 L620.272,726.39 L614.534,726.555 L608.712,726.691 L602.809,726.798 L596.831,726.878 L590.78,726.932 L584.664,726.96 L578.484,726.964 L572.249,726.944 L565.96,726.901 L559.622,726.839 L553.239,726.757 L546.82,726.655 L540.364,726.534 L533.882,726.396 L524.11,726.158 L511.019,725.787 L497.891,725.365 L484.761,724.9 L471.667,724.4 L458.646,723.871 L448.951,723.46 L442.529,723.183 L436.145,722.904 L429.806,722.623 L423.514,722.341 L417.273,722.061 L411.089,721.784 L404.967,721.508 L398.724,721.534 L392.025,722.401 L385.412,723.258 L379.108,723.756 L373.269,723.658 L367.578,723.474 L361.983,723.298 L356.489,723.126 L351.117,722.936 L345.852,722.758 L340.7,722.593 L335.665,722.44 L330.754,722.3 L325.975,722.165 L322.476,722.075 L320.186,722.02 L317.929,721.969 L315.708,721.923 L314.61,721.902 C314.61,721.902 314.61,721.902 314.61,721.902 C314.059,721.89 313.264,722.446 312.835,723.144 C312.406,723.843 312.505,724.419 313.057,724.431 L313.057,724.431 M398.594,724.568 L396.002,724.375 L392.606,721.022 L387.487,720.52 L382.112,720.406 L376.729,720.279 L371.345,720.128 L363.268,719.863 L352.513,719.449 L341.779,718.99 L331.061,718.524 L320.354,718.094 L314.997,717.911 L314.997,717.911 C313.324,717.812 310.849,719.487 309.47,721.654 C308.091,723.82 308.329,725.657 310.003,725.756 L315.181,726.195 L325.59,727.081 L336.052,727.964 L346.568,728.813 L357.135,729.594 L365.1,730.104 L370.436,730.396 L375.794,730.642 L381.18,730.822 L386.844,730.525 L394.254,727.279 L397.073,727.098 C397.073,727.098 397.073,727.098 397.073,727.098 C397.631,727.1 398.424,726.534 398.844,725.836 C399.264,725.137 399.152,724.57 398.594,724.568 L398.594,724.568" fill="#000000"/>
    <path d="M312.06,678.164 L311.841,678.617 L311.276,679.685 L310.548,680.969 L309.906,682.305 L309.959,683.292 L310.001,684.41 L310.034,685.652 L310.07,687.005 L310.097,688.467 L310.117,690.033 L310.14,691.69 L310.156,693.439 L310.171,695.271 L310.184,697.18 L310.192,699.163 L310.207,701.208 L310.216,703.317 L310.221,705.483 L310.227,707.698 L310.239,709.953 L310.25,713.412 L310.254,718.135 L310.277,722.923 L310.289,727.757 L310.316,732.576 L310.343,737.347 L310.375,742.023 L310.407,745.441 L310.426,747.669 L310.452,749.847 L310.479,751.972 L310.508,754.04 L310.541,756.041 L310.572,757.976 L310.612,759.832 L310.649,761.611 L310.691,763.304 L310.734,764.906 L310.775,766.415 L310.826,767.818 L310.872,769.119 L310.917,770.309 L310.969,771.38 L311.014,772.332 L311.054,773.162 L311.1,773.856 L311.138,774.417 L311.166,774.842 L311.181,775.068 L311.188,775.173 L311.192,775.242 L311.194,775.278 L319.141,770.517 L319.138,770.442 L319.132,770.351 L319.124,770.223 L319.113,770.054 L319.093,769.847 L319.069,769.599 L319.041,769.308 L319.009,768.975 L318.972,768.598 L318.931,768.177 L318.861,767.727 L318.779,767.235 L318.674,766.709 L318.592,766.445 L318.592,766.445 C318.593,764.931 317.059,764.624 315.167,765.759 C313.275,766.894 311.741,769.042 311.741,770.555 C311.741,770.555 311.741,770.555 311.741,770.555 L311.659,770.917 L311.555,771.57 L311.473,772.16 L311.402,772.695 L311.362,773.165 L311.326,773.586 L311.294,773.958 L311.266,774.282 L311.242,774.559 L311.223,774.79 L311.212,774.972 L311.204,775.109 L311.198,775.2 L311.195,775.224 L319.141,770.481 L319.143,770.454 L319.147,770.383 L319.153,770.27 L319.167,770.027 L319.192,769.569 L319.226,768.963 L319.267,768.216 L319.301,767.341 L319.338,766.336 L319.38,765.207 L319.415,763.967 L319.448,762.617 L319.483,761.16 L319.506,759.611 L319.53,757.965 L319.55,756.234 L319.562,754.422 L319.574,752.532 L319.575,750.575 L319.574,748.55 L319.567,746.467 L319.553,744.33 L319.536,742.143 L319.508,739.915 L319.462,736.5 L319.375,731.847 L319.267,727.115 L319.141,722.346 L318.981,717.591 L318.811,712.877 L318.6,708.268 L318.435,704.893 L318.322,702.69 L318.197,700.537 L318.065,698.439 L317.931,696.395 L317.796,694.411 L317.647,692.501 L317.498,690.66 L317.342,688.898 L317.181,687.219 L317.02,685.626 L316.849,684.128 L316.677,682.726 L316.505,681.424 L316.324,680.232 L316.144,679.147 L315.966,678.171 L315.085,677.797 L314.11,677.635 L313.29,677.53 L312.94,677.503 C312.94,677.503 312.94,677.503 312.94,677.503 C312.895,677.336 312.661,677.348 312.417,677.531 C312.174,677.713 312.014,677.996 312.06,678.164 L312.06,678.164" fill="#000000"/>
    <path d="M1573.712,685.35 L1573.665,685.707 L1573.572,686.543 L1573.487,687.463 L1573.411,688.449 L1573.343,689.501 L1573.281,690.62 L1573.228,691.803 L1573.18,693.047 L1573.139,694.352 L1573.103,695.713 L1573.073,697.127 L1573.049,698.592 L1573.029,700.105 L1573.014,701.663 L1573.005,703.261 L1572.998,704.899 L1572.997,707.417 L1573.008,710.88 L1573.032,714.439 L1573.068,718.066 L1573.132,723.579 L1573.214,729.095 L1573.265,732.734 L1573.324,736.306 L1573.377,739.79 L1573.417,742.324 L1573.44,743.972 L1573.462,745.583 L1573.485,747.15 L1573.503,748.676 L1573.516,750.154 L1573.531,751.578 L1573.543,752.947 L1573.549,754.26 L1573.547,755.513 L1573.548,756.695 L1573.543,757.809 L1573.528,758.852 L1573.514,759.813 L1573.491,760.693 L1573.466,761.482 L1573.432,762.177 L1573.397,762.764 L1573.357,763.229 L1573.321,763.546 L1573.313,763.656 L1573.395,763.431 L1573.86,762.478 L1575.969,759.989 L1579.411,758.169 L1580.606,758.263 L1580.807,758.401 L1580.719,758.344 L1580.64,758.287 L1580.64,758.287 C1579.907,756.897 1577.458,757.359 1575.172,759.318 C1572.885,761.277 1571.626,763.991 1572.36,765.38 L1572.494,765.727 L1572.814,766.301 L1573.395,766.836 L1574.944,767.103 L1578.715,765.236 L1581.127,762.487 L1581.873,761.068 L1582.212,760.176 L1582.439,759.427 L1582.615,758.697 L1582.767,757.934 L1582.903,757.12 L1583.021,756.245 L1583.13,755.304 L1583.222,754.299 L1583.306,753.227 L1583.373,752.095 L1583.433,750.898 L1583.485,749.642 L1583.519,748.333 L1583.547,746.969 L1583.569,745.551 L1583.582,744.086 L1583.581,742.579 L1583.574,741.028 L1583.563,739.437 L1583.541,737.811 L1583.511,736.152 L1583.459,733.608 L1583.366,730.134 L1583.258,726.582 L1583.127,722.985 L1582.921,717.544 L1582.697,712.136 L1582.55,708.587 L1582.406,705.115 L1582.27,701.744 L1582.175,699.298 L1582.115,697.714 L1582.061,696.169 L1582.011,694.668 L1581.965,693.214 L1581.925,691.81 L1581.893,690.459 L1581.865,689.164 L1581.844,687.931 L1581.832,686.762 L1581.828,685.661 L1581.83,684.632 L1581.841,683.68 L1581.862,682.812 L1581.891,682.033 L1581.929,681.332 L1581.955,680.983 C1582.155,679.042 1580.471,678.447 1578.195,679.652 C1575.919,680.858 1573.912,683.409 1573.712,685.35 L1573.712,685.35" fill="#000000"/>
    <text transform="matrix(1, 0, 0, 1, 313.334, 535)">
      <tspan x="-47.882" y="5.793" font-family="cookiesandmilk-regularPro" font-size="89" fill="#000000">data</tspan>
      <tspan x="-96.254" y="92.193" font-family="cookiesandmilk-regularPro" font-size="89" fill="#000000">integrity</tspan>
    </text>
    <text transform="matrix(1, 0, 0, 1, 1577.025, 535)">
      <tspan x="-47.882" y="5.793" font-family="cookiesandmilk-regularPro" font-size="89" fill="#000000">data</tspan>
      <tspan x="-118.592" y="92.193" font-family="cookiesandmilk-regularPro" font-size="89" fill="#000000">corruption</tspan>
    </text>
  </g>
  <g id="art">
    <text transform="matrix(1, 0, 0, 1, 313.334, 880.048)">
      <tspan x="-34.888" y="5.793" font-family="cookiesandmilk-regularPro" font-size="89" fill="#000000">art</tspan>
    </text>
  </g>
  <g id="who_cares">
    <text transform="matrix(1, 0, 0, 1, 1577.025, 868.048)">
      <tspan x="-115.744" y="5.793" font-family="cookiesandmilk-regularPro" font-size="89" fill="#000000">who cares, </tspan>
      <tspan x="-79.121" y="92.193" font-family="cookiesandmilk-regularPro" font-size="89" fill="#000000">it's art</tspan>
    </text>
  </g>
  <g id="arrow" display="none">
    <path d="M1315.582,635.667 L1408.444,635.667 L1360.758,699.667 L1315.582,635.667 z" fill="#953CD0"/>
  </g>
</svg>
